Priest 2011 SWESUB 720p BRRip XviD-ASPiRE

Undertext: WhoKnow
 
http://www.imdb.com/title/tt0822847/

Handling:

'Priest' utspelar sig i en postapokalyptisk parallellvärld. 
Ett krig mellan krigarpräster och vampyrer har förvandlat världen till 
ett ödelandskap. Prästerna tycks äntligen ha segrat och avskedas därför av 
kyrkans ledare. I stängda och smutsiga städer styr nu kyrkan folket med 
järnhand, och krigarprästerna är utstötta och fruktade. När en krigarpräst
får bud om att hans brors familj har attackerats av vampyrer, ger han sig av
för att hitta och rädda deras dotter som blivit kidnappad. Kyrkans ledare vägrar
tro på krigarprästernas varningar, i stället bannlyser man budbärarna.

iNFO:

Genre: Action, Skräck, Sci-Fi, Thriller
Regi: Scott Charles Stewart
Medverkande: Paul Bettany, Karl Urban, Cam Gigandet, Maggie Q, Lily Collins
Produktionsland: USA
Språk: Engelska
Text: Svenska

General:
Format                           : AVI
Format/Info                      : Audio Video Interleave
Format profile                   : OpenDML
File size                        : 2.45 GiB
Duration                         : 1h 27mn
Overall bit rate                 : 4 003 Kbps

Video:
ID                               : 0
Format                           : MPEG-4 Visual
Format profile                   : Advanced Simple@L5
Format settings, BVOP            : 1
Format settings, QPel            : No
Format settings, GMC             : No warppoints
Format settings, Matrix          : Default (H.263)
Muxing mode                      : Packed bitstream
Codec ID                         : XVID
Codec ID/Hint                    : XviD
Duration                         : 1h 27mn
Bit rate                         : 3 353 Kbps
Width                            : 1 280 pixels
Height                           : 528 pixels
Display aspect ratio             : 2.40:1
Frame rate                       : 23.976 fps
Color space                      : YUV
Chroma subsampling               : 4:2:0
Bit depth                        : 8 bits
Scan type                        : Progressive
Compression mode                 : Lossy
Bits/(Pixel*Frame)               : 0.207
Stream size                      : 2.05 GiB (84%)
Writing library                  : XviD 62

Audio:
ID                               : 1
Format                           : AC-3
Format/Info                      : Audio Coding 3
Mode extension                   : CM (complete main)
Codec ID                         : 2000
Duration                         : 1h 27mn
Bit rate mode                    : Constant
Bit rate                         : 640 Kbps
Channel(s)                       : 6 channels
Channel positions                : Front: L C R, Side: L R, LFE
Sampling rate                    : 48.0 KHz
Bit depth                        : 16 bits
Compression mode                 : Lossy
Stream size                      : 400 MiB (16%)
Alignment                        : Split accross interleaves
Interleave, duration             : 64 ms (1.53 video frames)
Interleave, preload duration     : 500 ms

ASPiRE